<?xml version="1.0" encoding="UTF-8"?>
<!DOCTYPE svg PUBLIC "-//W3C//DTD SVG 1.1//EN" "http://www.w3.org/Graphics/SVG/1.1/DTD/svg11.dtd">
<svg xmlns="http://www.w3.org/2000/svg" version="1.1" width="1000px" height="1000px" style="shape-rendering:geometricPrecision; text-rendering:geometricPrecision; image-rendering:optimizeQuality; fill-rule:evenodd; clip-rule:evenodd" xmlns:xlink="http://www.w3.org/1999/xlink">
<g><path style="opacity:0.874" fill="#090909" d="M 121.5,203.5 C 186.501,203.333 251.501,203.5 316.5,204C 344.227,204.676 371.227,209.343 397.5,218C 439.253,237.953 462.42,271.12 467,317.5C 471.972,351.577 471.639,385.577 466,419.5C 460.724,441.448 447.557,456.614 426.5,465C 415.498,469.667 404.165,473.334 392.5,476C 413.849,480.344 433.182,489.011 450.5,502C 467.095,518.695 476.595,538.862 479,562.5C 479.847,568.814 480.513,575.147 481,581.5C 481.906,619.517 481.573,657.517 480,695.5C 478.836,716.33 473.503,735.996 464,754.5C 448.75,777.352 427.25,789.852 399.5,792C 383.891,793.996 368.224,795.329 352.5,796C 275.501,796.5 198.501,796.667 121.5,796.5C 121.5,598.833 121.5,401.167 121.5,203.5 Z M 276.5,305.5 C 287.714,304.835 298.714,306.001 309.5,309C 317.163,314.13 321.996,321.297 324,330.5C 327.18,357.15 327.18,383.817 324,410.5C 323.84,422.686 318.006,430.52 306.5,434C 296.557,435.365 286.557,435.865 276.5,435.5C 276.5,392.167 276.5,348.833 276.5,305.5 Z M 276.5,529.5 C 288.417,529.115 300.084,530.615 311.5,534C 318.006,536.154 321.839,540.654 323,547.5C 323.882,550.789 324.548,554.123 325,557.5C 326.581,589.812 326.914,622.145 326,654.5C 325.658,663.879 323.658,672.879 320,681.5C 315.718,687.399 309.885,690.899 302.5,692C 293.938,693.921 285.271,694.754 276.5,694.5C 276.5,639.5 276.5,584.5 276.5,529.5 Z"/></g>
<g><path style="opacity:0.872" fill="#000000" d="M 636.5,203.5 C 702.5,203.5 768.5,203.5 834.5,203.5C 834.5,332.833 834.5,462.167 834.5,591.5C 848.5,591.5 862.5,591.5 876.5,591.5C 876.5,625.5 876.5,659.5 876.5,693.5C 862.5,693.5 848.5,693.5 834.5,693.5C 834.5,727.833 834.5,762.167 834.5,796.5C 784.833,796.5 735.167,796.5 685.5,796.5C 685.5,762.167 685.5,727.833 685.5,693.5C 626.833,693.5 568.167,693.5 509.5,693.5C 509.333,658.832 509.5,624.165 510,589.5C 552.677,460.971 594.843,332.304 636.5,203.5 Z M 684.5,344.5 C 685.499,426.665 685.833,508.998 685.5,591.5C 663.831,591.667 642.164,591.5 620.5,591C 642.379,508.986 663.712,426.82 684.5,344.5 Z"/></g>
<g><path style="opacity:1" fill="#fefefe" d="M 126.5,207.5 C 184.834,207.333 243.168,207.5 301.5,208C 326.781,208.105 351.781,210.772 376.5,216C 413.135,225.639 438.968,247.806 454,282.5C 462.869,310.284 467.036,338.784 466.5,368C 467.046,388.262 464.546,408.095 459,427.5C 455.104,437.394 448.938,445.56 440.5,452C 424.866,461.84 407.866,468.507 389.5,472C 385.5,474.667 385.5,477.333 389.5,480C 409.297,484.155 427.63,491.822 444.5,503C 462.65,519.396 472.816,539.896 475,564.5C 475.847,570.814 476.513,577.147 477,583.5C 477.883,619.182 477.549,654.849 476,690.5C 475.627,715.69 468.627,738.69 455,759.5C 442.873,774.15 427.373,782.983 408.5,786C 393.596,788.545 378.596,790.212 363.5,791C 284.509,792.411 205.509,792.911 126.5,792.5C 126.5,597.5 126.5,402.5 126.5,207.5 Z M 276.5,305.5 C 276.5,348.833 276.5,392.167 276.5,435.5C 286.557,435.865 296.557,435.365 306.5,434C 318.006,430.52 323.84,422.686 324,410.5C 327.18,383.817 327.18,357.15 324,330.5C 321.996,321.297 317.163,314.13 309.5,309C 298.714,306.001 287.714,304.835 276.5,305.5 Z M 276.5,529.5 C 276.5,584.5 276.5,639.5 276.5,694.5C 285.271,694.754 293.938,693.921 302.5,692C 309.885,690.899 315.718,687.399 320,681.5C 323.658,672.879 325.658,663.879 326,654.5C 326.914,622.145 326.581,589.812 325,557.5C 324.548,554.123 323.882,550.789 323,547.5C 321.839,540.654 318.006,536.154 311.5,534C 300.084,530.615 288.417,529.115 276.5,529.5 Z"/></g>
<g><path style="opacity:1" fill="#007c00" d="M 640.5,207.5 C 703.5,207.5 766.5,207.5 829.5,207.5C 829.333,335.5 829.5,463.5 830,591.5C 830.309,592.766 830.809,593.933 831.5,595C 844.829,595.5 858.163,595.667 871.5,595.5C 871.5,626.5 871.5,657.5 871.5,688.5C 857.797,688.22 844.13,688.554 830.5,689.5C 829.52,723.802 829.187,758.136 829.5,792.5C 782.833,792.5 736.167,792.5 689.5,792.5C 689.667,758.832 689.5,725.165 689,691.5C 688.692,690.692 688.192,690.025 687.5,689.5C 629.542,688.504 571.542,688.171 513.5,688.5C 513.028,654.784 513.528,621.118 515,587.5C 556.744,460.768 598.577,334.102 640.5,207.5 Z M 684.5,344.5 C 663.712,426.82 642.379,508.986 620.5,591C 642.164,591.5 663.831,591.667 685.5,591.5C 685.833,508.998 685.499,426.665 684.5,344.5 Z"/></g>
<g><path style="opacity:0.914" fill="#050505" d="M 274.5,300.5 C 284.534,300.907 294.534,301.741 304.5,303C 312.79,304.059 318.956,308.226 323,315.5C 325.61,320.606 327.61,325.94 329,331.5C 330.889,356.825 330.889,382.159 329,407.5C 328.228,416.442 325.395,424.608 320.5,432C 314.165,436.337 307.165,439.004 299.5,440C 291.167,440.667 282.833,440.667 274.5,440C 273.874,439.25 273.374,438.416 273,437.5C 272.333,392.5 272.333,347.5 273,302.5C 273.717,301.956 274.217,301.289 274.5,300.5 Z M 276.5,305.5 C 276.5,348.833 276.5,392.167 276.5,435.5C 286.557,435.865 296.557,435.365 306.5,434C 318.006,430.52 323.84,422.686 324,410.5C 327.18,383.817 327.18,357.15 324,330.5C 321.996,321.297 317.163,314.13 309.5,309C 298.714,306.001 287.714,304.835 276.5,305.5 Z"/></g>
<g><path style="opacity:0.918" fill="#000200" d="M 683.5,336.5 C 685.722,336.178 687.556,336.845 689,338.5C 689.667,423.167 689.667,507.833 689,592.5C 688.5,593.667 687.667,594.5 686.5,595C 663.833,595.667 641.167,595.667 618.5,595C 617.106,594.044 616.439,592.711 616.5,591C 637.84,505.802 660.173,420.969 683.5,336.5 Z M 684.5,344.5 C 663.712,426.82 642.379,508.986 620.5,591C 642.164,591.5 663.831,591.667 685.5,591.5C 685.833,508.998 685.499,426.665 684.5,344.5 Z"/></g>
<g><path style="opacity:0.922" fill="#030303" d="M 274.5,524.5 C 285.568,524.97 296.568,526.137 307.5,528C 315.969,529.472 322.136,533.972 326,541.5C 328.377,548.299 329.711,555.299 330,562.5C 330.667,593.833 330.667,625.167 330,656.5C 329.515,665.076 327.849,673.409 325,681.5C 322.038,687.792 317.205,691.959 310.5,694C 298.776,697.784 286.776,699.45 274.5,699C 273.874,698.25 273.374,697.416 273,696.5C 272.333,639.833 272.333,583.167 273,526.5C 273.717,525.956 274.217,525.289 274.5,524.5 Z M 276.5,529.5 C 276.5,584.5 276.5,639.5 276.5,694.5C 285.271,694.754 293.938,693.921 302.5,692C 309.885,690.899 315.718,687.399 320,681.5C 323.658,672.879 325.658,663.879 326,654.5C 326.914,622.145 326.581,589.812 325,557.5C 324.548,554.123 323.882,550.789 323,547.5C 321.839,540.654 318.006,536.154 311.5,534C 300.084,530.615 288.417,529.115 276.5,529.5 Z"/></g>
</svg>
